PathFileType	4	(X/Y/Z)	Patient4_TMGait_0pt4_02_right_32.trc.trc
DataRate	CameraRate	NumFrames	NumMarkers	Units	OrigDataRate	OrigDataStartFrame	OrigNumFrames
76.923076923077	76.923076923077	4	33	mm	76.923076923077	106	       141
Frame#	Time	Sacral			L.Shoulder			Chest			R.Shoulder			Neck			R.ASIS			L.ASIS			R.Thigh.Superior			R.Thigh.Lateral			R.Thigh.Inferior			R.Patella			L.Thigh.Superior			L.Thigh.Lateral			L.Thigh.Inferior			L.Patella			L.Shank.Superior			L.Shank.Lateral			L.Shank.Inferior			R.Shank.Superior			R.Shank.Lateral			R.Shank.Inferior			R.Heel			R.Midfoot.Superior			R.Midfoot.Lateral			R.Toe			L.Heel			L.Midfoot.Lateral			L.Midfoot.Superior			L.Toe			L.Elbow			L.Wrist			R.Elbow			R.Wrist			
		X1	Y1	Z1	X2	Y2	Z2	X3	Y3	Z3	X4	Y4	Z4	X5	Y5	Z5	X6	Y6	Z6	X7	Y7	Z7	X8	Y8	Z8	X9	Y9	Z9	X10	Y10	Z10	X11	Y11	Z11	X12	Y12	Z12	X13	Y13	Z13	X14	Y14	Z14	X15	Y15	Z15	X16	Y16	Z16	X17	Y17	Z17	X18	Y18	Z18	X19	Y19	Z19	X20	Y20	Z20	X21	Y21	Z21	X22	Y22	Z22	X23	Y23	Z23	X24	Y24	Z24	X25	Y25	Z25	X26	Y26	Z26	X27	Y27	Z27	X28	Y28	Z28	X29	Y29	Z29	X30	Y30	Z30	X31	Y31	Z31	X32	Y32	Z32	X33	Y33	Z33	

106	43.585000000000	843.046729509447	1007.981757272589	409.955312943638	1035.990595049464	1441.507888009176	233.897659915858	1127.555233826909	1373.025637088776	401.144404011011	1031.176267902340	1441.667972896288	570.500510822975	1005.941169573644	1500.557619269340	390.605466546405	1070.133445635462	952.481415259138	533.977372681619	1064.587764212447	967.747025022720	260.520768471532	1159.405980040207	787.725003183879	506.473061217138	1126.303501042863	667.247597817535	587.795686953120	1216.799958994640	629.478371423072	509.945060633759	1243.679078945384	524.023983649837	537.044562309308	1107.102865422888	749.512982066778	292.331802912350	1014.952837579747	635.201226754428	232.900290762399	1094.660612824032	556.055284200931	298.623821911312	1091.877334160731	487.295505119826	310.161213707874	1063.148803173574	415.743730847824	302.422490405688	971.203140031965	303.430519867671	253.084034531163	1015.548451906783	191.530871165195	326.084575491169	1180.654577658122	440.401890010335	548.359304941365	1070.840695114668	381.109286251957	613.454670353817	1077.029064341508	269.304864795915	569.285113776251	892.527431617697	174.460120760872	549.823117470831	1068.580426060689	141.825010304079	588.255243468670	961.116411713845	124.696729171784	622.418519590133	1148.147395877302	38.152269189772	611.296629105946	883.897921327919	38.979791954880	371.704548553413	955.511966017921	35.395130511117	288.854015477851	1040.110980111297	96.002530985762	314.248917650549	1167.899518240228	41.505913505770	281.409001956165	1091.430042362185	1113.006345510071	74.423904636615	1307.391161130807	963.372025478452	56.225332168466	959.753769517683	1097.452551438720	681.402486477611	999.401864196571	838.358732375337	676.178598358891	
107	43.598000000000	841.858642090171	1008.787086569896	408.406534187586	1038.348814434668	1441.911094798519	233.809285155302	1127.702582480160	1372.998321751537	402.022133224120	1029.677505566427	1442.060497902465	570.232750889968	1006.481334942790	1500.911244613889	390.363313575258	1067.975218027970	953.092049285740	534.462539995171	1064.423637322297	967.844180004733	260.901050180345	1157.528493128363	788.980023566674	507.224632158991	1124.787729934584	668.435916206855	588.636825262319	1214.958692677257	630.684536952506	510.568016804394	1243.110921690120	527.177712633192	537.771491868657	1104.515999285739	748.889530827793	293.242958201550	1011.661874735198	635.414321344181	232.696118160567	1090.112994087240	555.577001772085	298.868432739863	1086.638753978345	487.013561728776	310.253190143962	1058.025848211587	415.710859083947	302.318500492434	966.111421391975	303.434658884354	252.865374253784	1010.288687567791	191.519736600838	325.953719182195	1184.118261017031	442.013111377483	549.171316893023	1078.505048961973	376.595119277531	614.777201277740	1090.966358013624	265.437129172305	570.332144695216	912.547057056990	159.494901857008	551.386315539838	1090.245258969118	138.049601118798	589.440897703965	984.240300908561	114.416494224706	623.986649033040	1176.020522889395	39.958802477314	612.465095099244	878.652146466601	38.991994711506	371.654069834726	950.267531080890	35.364976976841	288.805820759799	1034.871067967675	95.979233029729	314.180514037777	1162.668728626247	41.461523376659	281.404826089626	1097.150647775978	1115.509903517092	72.529889702872	1319.043648551007	974.702526700082	55.302131305900	948.385665377729	1100.299528250142	680.524152993742	980.987583816188	840.383542664660	675.848328685426	
108	43.611000000000	840.730998830895	1009.531964758125	407.000072589412	1040.709909748958	1442.161763370034	233.893803914299	1127.905927796920	1372.852830209660	403.026490935813	1028.323139926842	1442.382985735064	570.092632089096	1007.056033422535	1501.153312453115	390.249544472308	1065.858503538078	953.491182966175	535.116655611235	1064.279088712685	967.869695822093	261.416777108483	1155.161950846484	789.540658077852	508.153161771631	1122.354474725076	669.033626900146	589.567702180328	1212.108507756615	631.063286434345	511.300504759724	1241.372651451948	529.743961980869	538.462561029766	1101.913439802783	748.236482197721	294.182431808205	1008.358987642505	635.603697059040	232.515953844949	1085.574116301853	555.091983972262	299.091667353297	1081.419030346862	486.722736645546	310.308286216323	1052.928859850344	415.658332526037	302.197393922371	961.019713399217	303.424118821215	252.633610670503	1005.039119969958	191.495247281787	325.813508914919	1186.803023498506	443.310038407976	550.062725233693	1086.120269377270	371.701498508955	616.399549332494	1105.144834501082	261.595794567352	571.612643546219	933.937046372654	144.318426370387	553.384772954995	1112.623409889585	134.670608064594	590.826956374401	1008.624866925235	104.383617546716	625.925129195421	1204.567351632270	42.837363813648	613.873973361807	873.413574049554	38.999287302141	371.601455605900	945.020100254272	35.329089970080	288.757869816356	1029.625472382601	95.951151710649	314.113063180532	1157.434060844073	41.417651645751	281.405368971456	1102.609031284109	1117.821762790357	70.922232969510	1329.860242389202	985.768238777210	54.813257091826	937.525924780343	1103.241379741701	679.536540684818	963.568230086043	842.717629842687	675.591953588199	
109	43.624000000000	839.690855977413	1010.195700899054	405.761872452049	1043.012138862424	1442.256181280754	234.154225033597	1128.149418463817	1372.593354981631	404.145302836504	1027.122011900017	1442.626348479312	570.093052315769	1007.641547328460	1501.278457270201	390.272330336452	1063.825997901099	953.671258113666	535.929177611534	1064.161650147802	967.823339832420	262.057856151183	1152.312103165987	789.374040150142	509.244632881714	1119.020726525020	669.033219160599	590.587472394935	1208.298255946856	630.623527472306	512.144956967262	1238.522239348266	531.690567222161	539.097780383909	1099.343556801488	747.554796784756	295.111387090629	1005.078096626831	635.761477021342	232.366052360956	1081.094860100598	554.594978787711	299.286158930713	1076.273798745824	486.413972977247	310.326093164278	1047.900702473366	415.575985044180	302.062199705654	955.954046263202	303.399661834396	252.389605832269	999.813605849460	191.451313933152	325.665263853266	1188.688505973132	444.319332784024	551.012558403140	1093.587633592768	366.616969101048	618.263863307284	1119.326515361996	257.994237783937	573.060005825555	956.391517423340	129.405303027192	555.692320276061	1135.324933335568	131.938793660656	592.339193414835	1033.860236207437	94.971925211879	628.109331994548	1233.233074198680	46.936514958249	615.429092734255	868.180126785529	39.002023754903	371.546110542549	939.769727851136	35.287586952693	288.709743548609	1024.375178453889	95.917906129242	314.046127455219	1152.196036416399	41.372661889304	281.409467202579	1107.822501029748	1119.924738403269	69.616850492047	1339.840243453079	996.447648212323	54.748029236699	927.299711163547	1106.209677490519	678.469771795535	947.228746503957	845.239979689526	675.372522108646	
